<svg width="22" height="30" viewBox="0 0 22 30" fill="none" xmlns="http://www.w3.org/2000/svg">
<path d="M20.9848 15.7388C20.2879 14.8375 19.2361 14.2185 17.8297 13.882C19.6207 12.9685 20.4078 11.4179 20.1917 9.23016C20.1195 8.43683 19.9002 7.74928 19.5334 7.16648C19.1664 6.58356 18.6712 6.11494 18.0457 5.76043C17.4208 5.40547 16.7412 5.13526 16.0083 4.94898C15.2753 4.76269 14.4337 4.62743 13.4842 4.54338V0H10.7079V4.41714C10.2272 4.41714 9.49404 4.42914 8.50855 4.4532V0H5.73193V4.54338C5.33517 4.55544 4.75232 4.56156 3.98311 4.56156L0.161011 4.54338V7.50022H2.16211C3.07561 7.50022 3.61047 7.90898 3.7667 8.72618V13.9007C3.88706 13.9007 3.98311 13.9068 4.05529 13.9188H3.7667V21.1663C3.67065 21.7791 3.32214 22.0858 2.7211 22.0858H0.720124L0.161137 25.3853H3.76702C3.99542 25.3853 4.32575 25.3883 4.75863 25.3937C5.19126 25.3998 5.51565 25.4028 5.73206 25.4028V30.0002H8.50912V25.4569C9.0138 25.4692 9.74695 25.4751 10.7085 25.4751V30.0002H13.4848V25.4028C14.4706 25.3548 15.345 25.2652 16.1079 25.1325C16.8711 24.9998 17.6015 24.7928 18.2985 24.5102C18.9954 24.2279 19.5782 23.8761 20.0469 23.4554C20.5158 23.0351 20.9031 22.5 21.2101 21.8508C21.5162 21.2016 21.7117 20.4504 21.7956 19.5969C21.9525 17.9266 21.6819 16.6404 20.9848 15.7388ZM8.56254 7.698C8.64672 7.698 8.88409 7.69497 9.27473 7.68891C9.66555 7.68272 9.98994 7.67678 10.2483 7.67072C10.5068 7.66478 10.8554 7.67981 11.2943 7.71587C11.733 7.75193 12.1025 7.80011 12.4029 7.8601C12.7033 7.92009 13.0341 8.0193 13.3944 8.15753C13.7553 8.29563 14.0435 8.46399 14.2596 8.66227C14.4762 8.86056 14.6594 9.11309 14.8094 9.41961C14.9598 9.72606 15.035 10.0776 15.035 10.4742C15.035 10.8108 14.981 11.1173 14.8729 11.3939C14.7651 11.6703 14.6024 11.9018 14.3863 12.0881C14.1702 12.2744 13.9474 12.4368 13.719 12.5749C13.4908 12.713 13.1991 12.8243 12.8446 12.9083C12.4902 12.9925 12.1807 13.0586 11.9165 13.1066C11.652 13.1548 11.3215 13.1879 10.9248 13.2058C10.5281 13.2238 10.2275 13.236 10.0233 13.242C9.81887 13.2479 9.53951 13.2479 9.1848 13.242C8.83004 13.236 8.62298 13.2329 8.56273 13.2329V7.69794H8.56254V7.698ZM16.1441 19.9757C16.0296 20.2523 15.8826 20.4928 15.7024 20.6973C15.522 20.9012 15.2845 21.0817 14.9901 21.2378C14.6959 21.3942 14.4101 21.5202 14.1339 21.6164C13.8573 21.713 13.5236 21.7966 13.1334 21.869C12.7423 21.9412 12.3999 21.9919 12.1051 22.0222C11.8108 22.0523 11.4594 22.0762 11.0506 22.0944C10.6421 22.1121 10.3234 22.1213 10.0951 22.1213C9.86668 22.1213 9.57815 22.118 9.22958 22.1121C8.88081 22.1065 8.65865 22.1035 8.56242 22.1035V16.0094C8.65847 16.0094 8.94396 16.0035 9.41883 15.9912C9.89377 15.9791 10.2812 15.9735 10.5817 15.9735C10.8822 15.9735 11.297 15.9912 11.826 16.0275C12.3546 16.0634 12.7993 16.1172 13.1602 16.1893C13.5207 16.2616 13.914 16.3726 14.341 16.523C14.7676 16.6732 15.1133 16.8564 15.3779 17.0728C15.6423 17.2895 15.8645 17.5655 16.0448 17.9022C16.2254 18.2386 16.3155 18.6233 16.3155 19.0561C16.3155 19.393 16.2585 19.699 16.1441 19.9757Z" fill="#F1349A"/>
</svg>
