<svg width="30" height="30" viewBox="0 0 30 30" fill="none" xmlns="http://www.w3.org/2000/svg">
<g clip-path="url(#clip0_24_9)">
<path d="M15 0C6.72875 0 0 6.72875 0 15C0 23.2712 6.72875 30 15 30C23.2712 30 30 23.2712 30 15C30 6.72875 23.2712 0 15 0ZM4.1575 21.195C5.15125 21.0712 6.07875 20.645 6.8125 19.9263C8.85625 17.8838 7.54875 16.4762 8.8025 14.9312C9.115 14.5625 9.65375 14.09 10.46 13.93C13.1775 13.3438 15.0737 10.9987 15.0737 8.22625C15.0737 6.76125 15.2437 4.77875 13.7137 2.5675C15.3612 2.39875 16.9937 2.555 18.58 3.03C18.2575 5.26125 18.6938 7.5625 19.8713 9.5375C21.87 12.8363 25.0987 12.145 27.0938 11.905C27.32 12.7875 27.4537 13.705 27.48 14.6512C24.07 13.67 24.145 17.705 21.4862 16.6562C14.255 13.7387 9.15875 21.4362 14.0513 27.4525C9.81625 27.1325 6.16625 24.6962 4.1575 21.195Z" fill="#EF8D1A"/>
</g>
<defs>
<clipPath id="clip0_24_9">
<rect width="30" height="30" fill="white"/>
</clipPath>
</defs>
</svg>
