<svg width="30" height="30" viewBox="0 0 30 30" fill="none" xmlns="http://www.w3.org/2000/svg">
<path d="M8.71628 17.1314C9.55936 17.1314 10.3743 17.0769 11.1454 16.9756V8.52318C10.3743 8.42189 9.55936 8.36743 8.71628 8.36743C3.90246 8.36743 6.86646e-05 10.1373 6.86646e-05 12.3207V13.178C6.86646e-05 15.3613 3.90246 17.1314 8.71628 17.1314Z" fill="#9CC821"/>
<path d="M8.71628 21.5448C9.55936 21.5448 10.3743 21.4904 11.1454 21.3892V18.9116C10.3741 19.0129 9.55958 19.0681 8.71628 19.0681C4.51434 19.0681 1.00719 17.7195 0.183385 15.9246C0.0634153 16.186 6.86646e-05 16.4567 6.86646e-05 16.7342V17.5916C6.86646e-05 19.7749 3.90246 21.5448 8.71628 21.5448Z" fill="#9CC821"/>
<path d="M11.1453 23.5178V23.3252C10.3741 23.4265 9.55951 23.4817 8.71621 23.4817C4.51427 23.4817 1.00712 22.1331 0.183317 20.3381C0.0633466 20.5995 0 20.8702 0 21.1477V22.0051C0 24.1885 3.90239 25.9584 8.71621 25.9584C9.67888 25.9584 10.6048 25.8875 11.4707 25.7567C11.2561 25.3177 11.1453 24.8547 11.1453 24.3751V23.5178Z" fill="#9CC821"/>
<path d="M21.2839 1.67188C16.47 1.67188 12.5677 3.44177 12.5677 5.62514V6.48248C12.5677 8.66585 16.47 10.4357 21.2839 10.4357C26.0976 10.4357 30.0001 8.66585 30.0001 6.48248V5.62514C30.0001 3.44177 26.0976 1.67188 21.2839 1.67188Z" fill="#9CC821"/>
<path d="M21.2839 12.3726C17.0819 12.3726 13.5748 11.024 12.751 9.229C12.631 9.49038 12.5677 9.7611 12.5677 10.0387V10.896C12.5677 13.0794 16.47 14.8493 21.2839 14.8493C26.0976 14.8493 30.0001 13.0794 30.0001 10.896V10.0387C30.0001 9.7611 29.9367 9.49038 29.8168 9.229C28.993 11.024 25.4858 12.3726 21.2839 12.3726Z" fill="#9CC821"/>
<path d="M21.2839 16.7862C17.0819 16.7862 13.5748 15.4375 12.751 13.6426C12.631 13.904 12.5677 14.1747 12.5677 14.4523V15.3096C12.5677 17.4931 16.47 19.263 21.2839 19.263C26.0976 19.263 30.0001 17.4931 30.0001 15.3096V14.4523C30.0001 14.1747 29.9367 13.904 29.8168 13.6426C28.993 15.4376 25.4858 16.7862 21.2839 16.7862Z" fill="#9CC821"/>
<path d="M21.2839 21.4382C17.0819 21.4382 13.5748 20.0896 12.751 18.2947C12.631 18.5561 12.5677 18.8268 12.5677 19.1043V19.9617C12.5677 22.1451 16.47 23.915 21.2839 23.915C26.0976 23.915 30.0001 22.1451 30.0001 19.9617V19.1043C30.0001 18.8268 29.9367 18.556 29.8168 18.2947C28.993 20.0895 25.4858 21.4382 21.2839 21.4382Z" fill="#9CC821"/>
<path d="M21.2839 25.8518C17.0819 25.8518 13.5748 24.5032 12.751 22.7083C12.631 22.9698 12.5677 23.2406 12.5677 23.5179V24.3753C12.5677 26.5586 16.47 28.3285 21.2839 28.3285C26.0976 28.3285 30.0001 26.5586 30.0001 24.3753V23.5179C30.0001 23.2403 29.9367 22.9696 29.8168 22.7083C28.993 24.5032 25.4858 25.8518 21.2839 25.8518Z" fill="#9CC821"/>
</svg>
