<svg width="30" height="30" viewBox="0 0 30 30" fill="none" xmlns="http://www.w3.org/2000/svg">
<g clip-path="url(#clip0_24_204)">
<path d="M16.8659 11.7829H16.8665C19.0101 6.08294 14.7696 0 8.71118 0C3.90765 0 0 3.91 0 8.71647C0 14.8043 6.11277 19.0237 11.7871 16.8718C12.8276 14.6365 14.6335 12.8271 16.8659 11.7829ZM9.59353 13.4635V14.4559C9.59353 14.9429 9.19882 15.3382 8.71118 15.3382C8.22412 15.3382 7.82882 14.9429 7.82882 14.4559V13.4635C7.45818 13.4635 6.62188 13.521 5.67471 12.8629C5.27471 12.5853 5.17529 12.0353 5.45353 11.6353C5.73118 11.2347 6.28118 11.1359 6.68118 11.4135C6.921 11.5818 7.22488 11.6955 7.52471 11.6988H9.78706C10.3561 11.6988 10.8353 11.2391 10.8353 10.6488C10.8353 10.07 10.3647 9.59882 9.78647 9.59882C9.06429 9.59882 8.48118 9.59882 7.63588 9.59882C6.08471 9.59882 4.82235 8.33647 4.82235 6.78412C4.82235 5.36947 5.87547 3.96941 7.82882 3.96941V2.97765C7.82882 2.49 8.22412 2.09529 8.71118 2.09529C9.19882 2.09529 9.59353 2.49 9.59353 2.97765V3.96941C10.6332 3.96941 11.4667 4.36224 12.0818 5.01882C12.4147 5.37471 12.3965 5.93294 12.0412 6.26647C11.6899 6.59494 11.134 6.58629 10.7941 6.22529C10.5047 5.91706 10.11 5.73824 9.71 5.73412H7.63588C7.05541 5.73412 6.58706 6.20606 6.58706 6.78412C6.58706 7.36294 7.05765 7.83412 7.63588 7.83412H9.65235C11.4776 7.83412 12.6 9.19324 12.6 10.6488C12.6 12.0942 11.5162 13.4635 9.59353 13.4635Z" fill="#4047F1"/>
<path d="M21.2889 12.567C16.4911 12.567 12.5778 16.47 12.5778 21.2835C12.5778 26.09 16.4854 30 21.2889 30C26.0925 30 30.0001 26.09 30.0001 21.2835C30.0001 16.477 26.0925 12.567 21.2889 12.567ZM25.2166 25.977C25.0702 26.44 24.5751 26.6993 24.1089 26.5511C22.2645 25.9661 20.6745 26.082 18.9795 26.5594C18.2251 26.7713 17.5883 25.9654 17.9695 25.2805C18.4831 24.3594 18.816 23.367 18.9619 22.3429H18.2019C17.7148 22.3429 17.3195 21.9476 17.3195 21.4605C17.3195 20.9729 17.7148 20.5782 18.2019 20.5782H19.0278C19.0113 20.3323 18.9998 20.249 18.9178 19.5023C18.7115 17.6174 20.1896 15.9747 22.0783 15.9747C22.9872 15.9747 23.8542 16.3647 24.4578 17.0453C24.7813 17.41 24.7478 17.9676 24.3831 18.2905C24.0152 18.6168 23.4578 18.5773 23.1372 18.2158C22.2352 17.1972 20.5216 17.9278 20.6719 19.31C20.755 20.0659 20.7759 20.2228 20.796 20.5782H22.0289C22.516 20.5782 22.9113 20.9729 22.9113 21.4605C22.9113 21.9476 22.516 22.3429 22.0289 22.3429H20.7419C20.6572 23.0694 20.4936 23.7841 20.2548 24.477C21.7748 24.2782 23.2777 24.4341 24.6425 24.8694C25.1072 25.0164 25.3642 25.5129 25.2166 25.977Z" fill="#4047F1"/>
<path d="M21.897 2.80951C23.6381 2.80951 25.4546 4.12574 25.4546 6.52245V7.34598L24.6646 6.55598C24.3216 6.21298 23.7621 6.21086 23.4164 6.55598C23.0723 6.90068 23.0723 7.45951 23.4164 7.80421L25.7129 10.1007C26.0615 10.449 26.6201 10.4413 26.9605 10.1007L26.9611 10.1001L29.257 7.80421C29.6017 7.45951 29.6017 6.90068 29.257 6.55598C28.9129 6.21186 28.3541 6.21186 28.0094 6.55598L27.2194 7.34598V6.52245C27.2194 3.31368 24.7805 1.0448 21.897 1.0448C21.4099 1.0448 21.0146 1.43951 21.0146 1.92715C21.0146 2.41421 21.4099 2.80951 21.897 2.80951Z" fill="#4047F1"/>
<path d="M8.1029 27.1905C6.36185 27.1905 4.54526 25.8743 4.54526 23.4776V22.654L5.33526 23.444C5.67643 23.7852 6.23496 23.7913 6.58349 23.444C6.92761 23.0993 6.92761 22.5405 6.58349 22.1958L4.28702 19.8999V19.8993C3.93108 19.5436 3.37632 19.5623 3.03879 19.8993V19.8999L0.742904 22.1958C0.398199 22.5405 0.398199 23.0993 0.742904 23.444C1.08702 23.7882 1.64585 23.7882 1.99055 23.444L2.78055 22.654V23.4776C2.78055 26.6863 5.21938 28.9552 8.1029 28.9552C8.58996 28.9552 8.98526 28.5605 8.98526 28.0729C8.98526 27.5858 8.58996 27.1905 8.1029 27.1905Z" fill="#4047F1"/>
</g>
<defs>
<clipPath id="clip0_24_204">
<rect width="30" height="30" fill="white"/>
</clipPath>
</defs>
</svg>
