<svg width="30" height="30" viewBox="0 0 30 30" fill="none" xmlns="http://www.w3.org/2000/svg">
<path d="M25.6066 4.39336C22.7735 1.56023 19.0066 0 15 0C10.9934 0 7.22648 1.56023 4.39336 4.39336C1.56023 7.22648 0 10.9934 0 15C0 19.0066 1.56029 22.7735 4.39336 25.6066C7.22643 28.4398 10.9934 30 15 30C19.0066 30 22.7735 28.4398 25.6066 25.6066C28.4398 22.7735 30 19.0066 30 15C30 10.9934 28.4397 7.22654 25.6066 4.39336ZM15 14.0625C17.3262 14.0625 19.2188 15.955 19.2188 18.2812C19.2188 20.2076 17.9205 21.8355 16.1532 22.3385C16.0263 22.3746 15.9375 22.4888 15.9375 22.6208V23.411C15.9375 23.9159 15.5496 24.3502 15.0453 24.3739C14.5069 24.3993 14.0625 23.9703 14.0625 23.4375V22.6206C14.0625 22.489 13.9743 22.3747 13.8476 22.3387C12.0879 21.8383 10.793 20.2227 10.7813 18.3074C10.7782 17.7962 11.1802 17.3588 11.6912 17.3442C12.2215 17.3289 12.6562 17.7543 12.6562 18.2812C12.6562 19.629 13.7998 20.7148 15.1675 20.6191C16.3221 20.5385 17.2573 19.6032 17.3379 18.4487C17.4334 17.0809 16.3477 15.9375 15 15.9375C12.6738 15.9375 10.7812 14.045 10.7812 11.7188C10.7812 9.79236 12.0795 8.16451 13.8468 7.66154C13.9737 7.62539 14.0625 7.51119 14.0625 7.37918V6.58898C14.0625 6.08414 14.4504 5.64979 14.9547 5.62605C15.4931 5.60074 15.9375 6.02971 15.9375 6.5625V7.37936C15.9375 7.51102 16.0257 7.62527 16.1524 7.66131C17.9121 8.1617 19.207 9.7773 19.2187 11.6926C19.2218 12.2038 18.8198 12.6412 18.3088 12.6558C17.7785 12.6711 17.3438 12.2457 17.3438 11.7188C17.3438 10.371 16.2002 9.28523 14.8325 9.38086C13.6779 9.46154 12.7427 10.3968 12.6621 11.5513C12.5666 12.9191 13.6523 14.0625 15 14.0625Z" fill="#832AF3"/>
</svg>
