<svg width="12" height="12" viewBox="0 0 12 12" fill="none" xmlns="http://www.w3.org/2000/svg">
<path fill-rule="evenodd" clip-rule="evenodd" d="M1.74042 0.770667C1.4727 0.567742 1.08661 0.591075 0.838916 0.838773C0.568699 1.10899 0.565497 1.54389 0.831764 1.81016L9.30629 10.2847L3.15071 10.3176L3.04914 10.3256C2.71746 10.3764 2.46062 10.6633 2.45736 11.0081C2.45379 11.3875 2.7584 11.6934 3.13775 11.6914L10.9435 11.6501C10.9891 11.6507 11.0348 11.6468 11.0799 11.6385C11.4024 11.5788 11.6489 11.2952 11.6507 10.9566L11.6914 3.13768L11.6845 3.03625C11.6372 2.7055 11.353 2.45407 11.0081 2.45735C10.6287 2.46096 10.3196 2.77141 10.3176 3.15075L10.2856 9.30691L1.8103 0.831621L1.74042 0.770667Z" fill="#F2354C"/>
<path d="M1.74042 0.770667L1.83924 0.657356L1.83103 0.651126L1.74042 0.770667ZM9.30629 10.2847L9.3071 10.4347L9.6665 10.4328L9.41236 10.1786L9.30629 10.2847ZM3.15071 10.3176L3.1499 10.1672L3.13895 10.1681L3.15071 10.3176ZM3.04914 10.3256L3.03735 10.1757L3.02642 10.1773L3.04914 10.3256ZM2.45736 11.0081L2.60736 11.0096L2.60736 11.0096L2.45736 11.0081ZM3.13775 11.6914L3.13696 11.5414L3.13696 11.5414L3.13775 11.6914ZM10.9435 11.6501L10.9456 11.5001L10.9427 11.5001L10.9435 11.6501ZM11.0799 11.6385L11.0526 11.491L11.0525 11.491L11.0799 11.6385ZM11.6507 10.9566L11.5007 10.9558L11.6507 10.9566ZM11.6914 3.13768L11.8418 3.13846L11.8411 3.12747L11.6914 3.13768ZM11.6845 3.03625L11.8346 3.02601L11.833 3.015L11.6845 3.03625ZM11.0081 2.45735L11.0095 2.60735L11.0081 2.45735ZM10.3176 3.15075L10.1676 3.14997L10.1676 3.14997L10.3176 3.15075ZM10.2856 9.30691L10.1795 9.41298L10.4337 9.66717L10.4356 9.30769L10.2856 9.30691ZM1.8103 0.831621L1.91662 0.725308L1.9089 0.718577L1.8103 0.831621ZM0.944982 0.944839C1.14016 0.749662 1.44233 0.732948 1.64981 0.890208L1.83103 0.651126C1.50306 0.402536 1.03307 0.432488 0.73285 0.732707L0.944982 0.944839ZM0.93783 1.7041C0.731609 1.49787 0.731866 1.15795 0.944982 0.944839L0.73285 0.732707C0.405532 1.06002 0.399385 1.58992 0.725698 1.91623L0.93783 1.7041ZM9.41236 10.1786L0.93783 1.7041L0.725698 1.91623L9.20023 10.3908L9.41236 10.1786ZM3.15151 10.4676L9.3071 10.4347L9.30549 10.1347L3.14991 10.1676L3.15151 10.4676ZM3.06089 10.4751L3.16246 10.4672L3.13895 10.1681L3.03738 10.1761L3.06089 10.4751ZM2.60736 11.0096C2.60991 10.7395 2.81157 10.5138 3.07185 10.4739L3.02642 10.1773C2.62335 10.2391 2.31133 10.587 2.30737 11.0067L2.60736 11.0096ZM3.13696 11.5414C2.84133 11.543 2.60457 11.3052 2.60736 11.0096L2.30737 11.0067C2.303 11.4698 2.67548 11.8438 3.13854 11.8414L3.13696 11.5414ZM10.9427 11.5001L3.13696 11.5414L3.13854 11.8414L10.9443 11.8001L10.9427 11.5001ZM11.0525 11.491C11.0172 11.4976 10.9813 11.5006 10.9456 11.5001L10.9414 11.8001C10.9969 11.8008 11.0525 11.7961 11.1073 11.7859L11.0525 11.491ZM11.5007 10.9558C11.4993 11.2209 11.3058 11.4441 11.0526 11.491L11.1072 11.786C11.499 11.7135 11.7985 11.3696 11.8007 10.9574L11.5007 10.9558ZM11.5414 3.1369L11.5007 10.9558L11.8007 10.9574L11.8414 3.13846L11.5414 3.1369ZM11.5348 3.04646L11.5418 3.14789L11.8411 3.12747L11.8341 3.02604L11.5348 3.04646ZM11.0095 2.60735C11.2784 2.60479 11.4992 2.80032 11.536 3.0575L11.833 3.015C11.7751 2.61069 11.4276 2.30335 11.0067 2.30736L11.0095 2.60735ZM10.4676 3.15153C10.4692 2.85418 10.7121 2.61018 11.0095 2.60735L11.0067 2.30736C10.5453 2.31175 10.17 2.68864 10.1676 3.14997L10.4676 3.15153ZM10.4356 9.30769L10.4676 3.15153L10.1676 3.14997L10.1356 9.30613L10.4356 9.30769ZM1.70424 0.937687L10.1795 9.41298L10.3917 9.20085L1.91637 0.725555L1.70424 0.937687ZM1.64182 0.883711L1.71171 0.944665L1.9089 0.718577L1.83901 0.657623L1.64182 0.883711Z" fill="#F2354C"/>
</svg>

