<svg width="40" height="40" viewBox="0 0 40 40" fill="none" xmlns="http://www.w3.org/2000/svg">
<path fill-rule="evenodd" clip-rule="evenodd" d="M20 39C34.249 39 39 34.249 39 20C39 5.75103 34.249 1 20 1C5.75103 1 1 5.75103 1 20C1 34.249 5.75103 39 20 39Z" fill="#2D283D" stroke="#2D283D" stroke-width="1.5" stroke-linecap="round" stroke-linejoin="round"/>
<g clip-path="url(#clip0_8_104)">
<path d="M22.9978 13.9887H24.641V11.1267C24.3575 11.0878 23.3825 11 22.247 11C19.8778 11 18.2548 12.4902 18.2548 15.2292V17.75H15.6403V20.9495H18.2548V29H21.4603V20.9503H23.969L24.3673 17.7508H21.4595V15.5465C21.4603 14.6217 21.7093 13.9887 22.9978 13.9887Z" fill="white"/>
</g>
<defs>
<clipPath id="clip0_8_104">
<rect width="18" height="18" fill="white" transform="translate(11 11)"/>
</clipPath>
</defs>
</svg>
