<svg width="40" height="40" viewBox="0 0 40 40" fill="none" xmlns="http://www.w3.org/2000/svg">
<path fill-rule="evenodd" clip-rule="evenodd" d="M20 39C34.249 39 39 34.249 39 20C39 5.75103 34.249 1 20 1C5.75103 1 1 5.75103 1 20C1 34.249 5.75103 39 20 39Z" fill="#2D283D" stroke="#2D283D" stroke-width="1.5" stroke-linecap="round" stroke-linejoin="round"/>
<path d="M20.1772 29C20.1176 29 20.058 29 19.998 28.9997C18.587 29.0032 17.2834 28.9673 16.0155 28.8901C14.8532 28.8194 13.7922 28.4177 12.9471 27.7286C12.1316 27.0637 11.5747 26.1646 11.292 25.0566C11.0459 24.092 11.0328 23.1451 11.0203 22.2292C11.0113 21.5721 11.0019 20.7935 11 20.0016C11.0019 19.2065 11.0113 18.4278 11.0203 17.7707C11.0328 16.855 11.0459 15.9081 11.292 14.9434C11.5747 13.8354 12.1316 12.9363 12.9471 12.2713C13.7922 11.5822 14.8532 11.1805 16.0157 11.1098C17.2835 11.0328 18.5875 10.9968 20.0014 11.0002C21.4127 10.9972 22.716 11.0328 23.9838 11.1098C25.1462 11.1805 26.2072 11.5822 27.0523 12.2713C27.8679 12.9363 28.4246 13.8354 28.7074 14.9434C28.9535 15.908 28.9665 16.855 28.979 17.7707C28.9881 18.4278 28.9976 19.2065 28.9994 19.9983V20.0016C28.9976 20.7935 28.9881 21.5721 28.979 22.2292C28.9665 23.145 28.9536 24.0918 28.7074 25.0566C28.4246 26.1646 27.8679 27.0637 27.0523 27.7286C26.2072 28.4177 25.1462 28.8194 23.9838 28.8901C22.7697 28.964 21.5225 29 20.1772 29ZM19.998 27.5935C21.386 27.5968 22.6604 27.5617 23.8984 27.4865C24.7773 27.4331 25.5393 27.1478 26.1636 26.6388C26.7407 26.1681 27.1381 25.5188 27.3448 24.7089C27.5497 23.9059 27.5615 23.0437 27.5729 22.21C27.5818 21.5573 27.5912 20.7841 27.5931 20C27.5912 19.2157 27.5818 18.4427 27.5729 17.7899C27.5615 16.9562 27.5497 16.094 27.3448 15.2909C27.1381 14.481 26.7407 13.8317 26.1636 13.3611C25.5393 12.8521 24.7773 12.5669 23.8984 12.5135C22.6604 12.4381 21.386 12.4033 20.0013 12.4063C18.6135 12.403 17.339 12.4381 16.101 12.5135C15.2221 12.5669 14.46 12.8521 13.8357 13.3611C13.2587 13.8317 12.8612 14.481 12.6545 15.2909C12.4497 16.094 12.4378 16.9561 12.4264 17.7899C12.4175 18.4432 12.4082 19.2168 12.4063 20.0016C12.4082 20.783 12.4175 21.5567 12.4264 22.21C12.4378 23.0437 12.4497 23.9059 12.6545 24.7089C12.8612 25.5188 13.2587 26.1681 13.8357 26.6388C14.46 27.1477 15.2221 27.4329 16.101 27.4864C17.339 27.5617 18.6138 27.5969 19.998 27.5935ZM19.9645 24.3945C17.5414 24.3945 15.5699 22.4232 15.5699 20C15.5699 17.5768 17.5414 15.6054 19.9645 15.6054C22.3876 15.6054 24.359 17.5768 24.359 20C24.359 22.4232 22.3876 24.3945 19.9645 24.3945ZM19.9645 17.0117C18.3168 17.0117 16.9762 18.3523 16.9762 20C16.9762 21.6477 18.3168 22.9883 19.9645 22.9883C21.6123 22.9883 22.9527 21.6477 22.9527 20C22.9527 18.3523 21.6123 17.0117 19.9645 17.0117ZM24.8512 14.1992C24.2688 14.1992 23.7965 14.6713 23.7965 15.2539C23.7965 15.8364 24.2688 16.3086 24.8512 16.3086C25.4337 16.3086 25.9059 15.8364 25.9059 15.2539C25.9059 14.6713 25.4337 14.1992 24.8512 14.1992Z" fill="white"/>
</svg>
