<svg width="38" height="27" viewBox="0 0 38 27" fill="none" xmlns="http://www.w3.org/2000/svg">
<path d="M27.5291 11.2062C27.2075 11.9204 26.6151 12.36 25.9701 12.36H12.027C11.3849 12.36 10.7905 11.9204 10.469 11.2062C10.1475 10.4942 10.1475 9.61269 10.469 8.89846L13.9553 1.15385C14.2758 0.439615 14.8692 0 15.5133 0H22.4829C23.125 0 23.7193 0.439615 24.0409 1.15385L27.5271 8.89846C27.8506 9.615 27.8506 10.4942 27.5291 11.2062ZM17.2983 23.0331L13.813 15.2896C13.4915 14.5754 12.8981 14.1358 12.255 14.1358H5.28444C4.64234 14.1358 4.04798 14.5754 3.72741 15.2896L0.241154 23.0331C-0.0803847 23.7473 -0.0803847 24.6288 0.241154 25.3408C0.562693 26.055 1.1551 26.4946 1.79915 26.4946H15.7403C16.3824 26.4946 16.9777 26.055 17.2983 25.3408C17.6198 24.6288 17.6198 23.7496 17.2983 23.0331ZM37.7589 23.0331L34.2726 15.2896C33.9511 14.5754 33.3587 14.1358 32.7156 14.1358H25.745C25.1029 14.1358 24.5076 14.5754 24.187 15.2896L20.7017 23.0331C20.3802 23.7473 20.3802 24.6288 20.7017 25.3408C21.0223 26.055 21.6157 26.4946 22.2588 26.4946H36.2009C36.8439 26.4946 37.4393 26.055 37.7598 25.3408C38.0814 24.6288 38.0814 23.7496 37.7589 23.0331Z" fill="url(#paint0_linear_13_3)"/>
<defs>
<linearGradient id="paint0_linear_13_3" x1="10.5" y1="0.244613" x2="24" y2="26.2446" gradientUnits="userSpaceOnUse">
<stop stop-color="#FD725F"/>
<stop offset="1" stop-color="#E9432C"/>
</linearGradient>
</defs>
</svg>
