<svg width="29" height="30" viewBox="0 0 29 30" fill="none" xmlns="http://www.w3.org/2000/svg">
<path d="M27.9001 21.708C27.6301 21.378 27.1768 21.256 26.7779 21.398C25.6597 21.796 24.4469 22 23.1695 22C17.0588 22 12.0884 17.064 12.0884 11C12.0884 7.35 13.9037 3.952 16.944 1.908C17.2885 1.676 17.4537 1.258 17.361 0.856C17.2683 0.454 16.9359 0.15 16.5229 0.09C16.0514 0.022 15.582 0 15.1105 0C6.77758 0 0 6.728 0 15C0 23.272 6.77758 30 15.1105 30C20.3992 30 25.2104 27.332 27.9767 22.864C28.2003 22.502 28.1681 22.04 27.9001 21.708Z" fill="#F8C030"/>
</svg>
