<svg width="19" height="32" viewBox="0 0 19 32" fill="none" xmlns="http://www.w3.org/2000/svg">
<path fill-rule="evenodd" clip-rule="evenodd" d="M9.77985 11.7639C9.89508 11.6286 12.6065 8.42453 12.6065 5.99703C12.6065 3.56953 9.89508 0.365419 9.77985 0.230164C9.51764 -0.0767215 9.0274 -0.0767215 8.76544 0.230164C8.65021 0.365419 5.93877 3.56953 5.93877 5.99703C5.93877 8.42453 8.64996 11.6286 8.76544 11.7639C9.0274 12.0708 9.51764 12.071 9.77985 11.7639ZM10.3873 17.1011C9.98492 17.1328 9.63848 16.7859 9.66998 16.3838C9.68414 16.2065 10.0328 12.0236 11.7493 10.3073C13.4656 8.59077 17.6485 8.24214 17.8258 8.22822C18.2281 8.19673 18.5746 8.54292 18.5428 8.94551C18.5289 9.12276 18.1803 13.3056 16.4637 15.022C14.7474 16.7383 10.5645 17.0871 10.3873 17.1011ZM11.7493 18.4748C13.4656 16.7585 17.6485 16.4099 17.8258 16.3957C18.2281 16.364 18.5746 16.7109 18.5428 17.113C18.5289 17.2903 18.1803 21.4731 16.4637 23.1894C14.7474 24.906 10.5645 25.2546 10.3873 25.2686C9.98492 25.3005 9.63848 24.9536 9.66998 24.5515C9.68414 24.374 10.0328 20.1911 11.7493 18.4748ZM6.79597 18.4751C8.51228 20.1914 8.86092 24.3743 8.87508 24.5515C8.90657 24.9539 8.56013 25.3 8.15779 25.2686C7.9803 25.2546 3.79766 24.906 2.0811 23.1894C0.364787 21.4731 0.0161525 17.2902 0.00199233 17.113C-0.0295019 16.7097 0.316935 16.3654 0.71928 16.3957C0.896771 16.4099 5.07965 16.7585 6.79597 18.4751ZM8.15779 17.1008C8.56038 17.1326 8.90681 16.7859 8.87508 16.3835C8.86116 16.2065 8.51252 12.0236 6.79597 10.3073C5.07965 8.59077 0.896771 8.24214 0.719525 8.22822C0.317179 8.19624 -0.0295019 8.54292 0.00223644 8.94551C0.0161525 9.12251 0.365031 13.3054 2.08135 15.0217C3.79766 16.7383 7.98054 17.0869 8.15779 17.1008ZM10.606 25.9995H7.93902V32H10.606V25.9995Z" fill="url(#paint0_linear_13_13)"/>
<defs>
<linearGradient id="paint0_linear_13_13" x1="5.46879" y1="-6.11576e-05" x2="11.8438" y2="32.0001" gradientUnits="userSpaceOnUse">
<stop stop-color="#2CE07F"/>
<stop offset="1" stop-color="#1ECB6E"/>
</linearGradient>
</defs>
</svg>
