<svg width="40" height="40" viewBox="0 0 40 40" fill="none" xmlns="http://www.w3.org/2000/svg">
<path fill-rule="evenodd" clip-rule="evenodd" d="M20 39C34.249 39 39 34.249 39 20C39 5.75103 34.249 1 20 1C5.75103 1 1 5.75103 1 20C1 34.249 5.75103 39 20 39Z" fill="#2D283D" stroke="#2D283D" stroke-width="1.5" stroke-linecap="round" stroke-linejoin="round"/>
<g clip-path="url(#clip0_8_98)">
<path d="M18.0628 22.3857L17.765 26.5738C18.191 26.5738 18.3755 26.3908 18.5968 26.171L20.594 24.2623L24.7325 27.293C25.4915 27.716 26.0263 27.4933 26.231 26.5948L28.9475 13.8657L28.9483 13.865C29.189 12.743 28.5425 12.3042 27.803 12.5795L11.8355 18.6927C10.7458 19.1157 10.7623 19.7232 11.6503 19.9985L15.7325 21.2683L25.2148 15.335C25.661 15.0395 26.0668 15.203 25.733 15.4985L18.0628 22.3857Z" fill="white"/>
</g>
<defs>
<clipPath id="clip0_8_98">
<rect width="18" height="18" fill="white" transform="translate(11 11)"/>
</clipPath>
</defs>
</svg>
