<svg width="40" height="40" viewBox="0 0 40 40" fill="none" xmlns="http://www.w3.org/2000/svg">
<path fill-rule="evenodd" clip-rule="evenodd" d="M20 39C34.249 39 39 34.249 39 20C39 5.75103 34.249 1 20 1C5.75103 1 1 5.75103 1 20C1 34.249 5.75103 39 20 39Z" fill="#2D283D" stroke="#2D283D" stroke-width="1.5" stroke-linecap="round" stroke-linejoin="round"/>
<g clip-path="url(#clip0_8_101)">
<path d="M27.1505 16.3347C27.8825 15.815 28.4982 15.1662 29 14.4193V14.4185C28.3302 14.7118 27.6178 14.9067 26.8738 15.0013C27.6388 14.5445 28.223 13.8267 28.4975 12.962C27.7843 13.3872 26.9967 13.6872 26.1575 13.8552C25.4802 13.1337 24.515 12.6875 23.462 12.6875C21.419 12.6875 19.7743 14.3457 19.7743 16.3783C19.7743 16.6707 19.799 16.952 19.8597 17.2198C16.7922 17.0698 14.0773 15.5998 12.2533 13.3595C11.9352 13.9122 11.7477 14.5445 11.7477 15.2248C11.7477 16.5027 12.4055 17.6353 13.3872 18.2915C12.794 18.2803 12.2127 18.1077 11.72 17.837V17.8775C11.72 19.6708 12.9987 21.1602 14.6765 21.5037C14.3758 21.5863 14.0487 21.6252 13.709 21.6252C13.4727 21.6252 13.2343 21.6118 13.0108 21.5623C13.4885 23.0233 14.846 24.098 16.4585 24.1332C15.203 25.115 13.6085 25.7067 11.8828 25.7067C11.5805 25.7067 11.2903 25.6932 11 25.6565C12.635 26.7102 14.5715 27.3125 16.661 27.3125C23.1732 27.3125 27.4175 21.8795 27.1505 16.3347Z" fill="white"/>
</g>
<defs>
<clipPath id="clip0_8_101">
<rect width="18" height="18" fill="white" transform="translate(11 11)"/>
</clipPath>
</defs>
</svg>
