<svg width="12" height="12" viewBox="0 0 12 12" fill="none" xmlns="http://www.w3.org/2000/svg">
<path fill-rule="evenodd" clip-rule="evenodd" d="M0.770652 10.3723C0.567727 10.6401 0.591059 11.0261 0.838758 11.2738C1.10897 11.544 1.54388 11.5473 1.81015 11.281L10.2847 2.80645L10.3176 8.96204L10.3256 9.06361C10.3764 9.39529 10.6633 9.65213 11.0081 9.65538C11.3875 9.65896 11.6934 9.35434 11.6914 8.975L11.6501 1.16921C11.6507 1.12362 11.6468 1.07792 11.6385 1.03282C11.5788 0.71035 11.2952 0.463836 10.9566 0.462073L3.13766 0.421341L3.03624 0.428259C2.70549 0.475594 2.45406 0.759778 2.45734 1.10465C2.46095 1.484 2.77139 1.79313 3.15074 1.79511L9.3069 1.82715L0.831606 10.3024L0.770652 10.3723Z" fill="#1CC07B"/>
<path d="M0.770652 10.3723L0.65734 10.2735L0.651111 10.2817L0.770652 10.3723ZM10.2847 2.80645L10.4347 2.80565L10.4327 2.44625L10.1786 2.70039L10.2847 2.80645ZM10.3176 8.96204L10.1672 8.96284L10.1681 8.9738L10.3176 8.96204ZM10.3256 9.06361L10.1756 9.0754L10.1773 9.08632L10.3256 9.06361ZM11.0081 9.65538L11.0095 9.50539L11.0095 9.50539L11.0081 9.65538ZM11.6914 8.975L11.5414 8.97579L11.5414 8.97579L11.6914 8.975ZM11.6501 1.16921L11.5001 1.1671L11.5001 1.17001L11.6501 1.16921ZM11.6385 1.03282L11.491 1.06011L11.491 1.06024L11.6385 1.03282ZM10.9566 0.462073L10.9558 0.612071L10.9566 0.462073ZM3.13766 0.421341L3.13845 0.270939L3.12746 0.271689L3.13766 0.421341ZM3.03624 0.428259L3.026 0.278196L3.01498 0.279772L3.03624 0.428259ZM2.45734 1.10465L2.60733 1.10322L2.45734 1.10465ZM3.15074 1.79511L3.14995 1.94511L3.14996 1.94511L3.15074 1.79511ZM9.3069 1.82715L9.41296 1.93322L9.66716 1.67902L9.30768 1.67715L9.3069 1.82715ZM0.831606 10.3024L0.725293 10.1961L0.718561 10.2038L0.831606 10.3024ZM0.944824 11.1678C0.749646 10.9726 0.732933 10.6704 0.890193 10.4629L0.651111 10.2817C0.402521 10.6097 0.432472 11.0797 0.732692 11.3799L0.944824 11.1678ZM1.70408 11.1749C1.49786 11.3811 1.15794 11.3809 0.944824 11.1678L0.732692 11.3799C1.06001 11.7072 1.5899 11.7134 1.91621 11.387L1.70408 11.1749ZM10.1786 2.70039L1.70408 11.1749L1.91621 11.387L10.3907 2.91252L10.1786 2.70039ZM10.4676 8.96124L10.4347 2.80565L10.1347 2.80726L10.1676 8.96284L10.4676 8.96124ZM10.4751 9.05185L10.4671 8.95028L10.1681 8.9738L10.1761 9.07537L10.4751 9.05185ZM11.0095 9.50539C10.7395 9.50284 10.5137 9.30118 10.4739 9.04089L10.1773 9.08632C10.2391 9.4894 10.587 9.80142 11.0067 9.80538L11.0095 9.50539ZM11.5414 8.97579C11.5429 9.27142 11.3052 9.50818 11.0095 9.50539L11.0067 9.80538C11.4698 9.80974 11.8438 9.43726 11.8414 8.9742L11.5414 8.97579ZM11.5001 1.17001L11.5414 8.97579L11.8414 8.9742L11.8001 1.16842L11.5001 1.17001ZM11.491 1.06024C11.4976 1.09559 11.5006 1.13141 11.5001 1.1671L11.8001 1.17132C11.8008 1.11583 11.7961 1.06024 11.7859 1.00541L11.491 1.06024ZM10.9558 0.612071C11.2209 0.613451 11.4441 0.806938 11.491 1.06011L11.7859 1.00554C11.7135 0.613761 11.3696 0.314222 10.9574 0.312075L10.9558 0.612071ZM3.13688 0.571338L10.9558 0.612071L10.9574 0.312075L3.13845 0.271343L3.13688 0.571338ZM3.04644 0.577911L3.14787 0.570992L3.12746 0.271689L3.02603 0.278608L3.04644 0.577911ZM2.60733 1.10322C2.60477 0.834381 2.8003 0.613553 3.05749 0.576746L3.01498 0.279772C2.61067 0.337635 2.30334 0.685174 2.30734 1.10608L2.60733 1.10322ZM3.15152 1.64511C2.85416 1.64356 2.61016 1.40061 2.60733 1.10322L2.30734 1.10608C2.31173 1.5674 2.68862 1.9427 3.14995 1.94511L3.15152 1.64511ZM9.30768 1.67715L3.15152 1.64511L3.14996 1.94511L9.30612 1.97715L9.30768 1.67715ZM0.937672 10.4085L9.41296 1.93322L9.20083 1.72108L0.72554 10.1964L0.937672 10.4085ZM0.883696 10.4709L0.94465 10.401L0.718561 10.2038L0.657607 10.2737L0.883696 10.4709Z" fill="#1CC07B"/>
</svg>
